<?xml version="1.0" encoding="UTF-8" standalone="no"?>
<!-- Generator: Adobe Illustrator 28.0.0, SVG Export Plug-In . SVG Version: 6.00 Build 0)  -->

<svg
   version="1.1"
   id="Ebene_1"
   x="0px"
   y="0px"
   viewBox="0 0 35.25 35.25"
   xml:space="preserve"
   sodipodi:docname="bluesky.svg"
   width="35.25"
   height="35.25"
   inkscape:version="1.3.2 (091e20ef0f, 2023-11-25, custom)"
   xmlns:inkscape="http://www.inkscape.org/namespaces/inkscape"
   xmlns:sodipodi="http://sodipodi.sourceforge.net/DTD/sodipodi-0.dtd"
   xmlns="http://www.w3.org/2000/svg"
   xmlns:svg="http://www.w3.org/2000/svg"><defs
   id="defs1" /><sodipodi:namedview
   id="namedview1"
   pagecolor="#ffffff"
   bordercolor="#666666"
   borderopacity="1.0"
   inkscape:showpageshadow="2"
   inkscape:pageopacity="0.0"
   inkscape:pagecheckerboard="0"
   inkscape:deskcolor="#d1d1d1"
   inkscape:zoom="14.890909"
   inkscape:cx="17.628205"
   inkscape:cy="15.680708"
   inkscape:window-width="1920"
   inkscape:window-height="1043"
   inkscape:window-x="0"
   inkscape:window-y="0"
   inkscape:window-maximized="1"
   inkscape:current-layer="Ebene_1" />
<style
   type="text/css"
   id="style1">
	.st0{fill:#1185FE;}
</style>
<path
   class="st0"
   d="M 17.61,15.861339 C 16.01,12.761339 11.67,6.9713388 7.63,4.1213388 3.76,1.3913389 2.28,1.8613389 1.32,2.3013389 0.2,2.8113389 0,4.5313388 0,5.5413388 c 0,1.01 0.55,8.3000002 0.92,9.5100002 1.2,4.02 5.45,5.38 9.37,4.94 0.2,-0.03 0.4,-0.06 0.61,-0.08 -0.2,0.03 -0.41,0.06 -0.61,0.08 -5.74,0.85 -10.85,2.94 -4.15,10.39 7.36,7.62 10.09,-1.63 11.49,-6.33 1.4,4.69 3.01,13.61 11.35,6.33 6.27,-6.33 1.72,-9.54 -4.02,-10.39 -0.2,-0.02 -0.41,-0.05 -0.61,-0.08 0.21,0.03 0.41,0.05 0.61,0.08 3.92,0.44 8.18,-0.92 9.37,-4.94 0.36,-1.22 0.92,-8.5000002 0.92,-9.5100002 0,-1.01 -0.2,-2.7299999 -1.32,-3.2399999 -0.97,-0.44 -2.44,-0.91 -6.31,1.8199999 -4.07,2.86 -8.41,8.6400002 -10.01,11.7400002 z"
   id="path1" />
</svg>
