<?xml version="1.0" encoding="UTF-8" standalone="no"?>
<!-- Created with Inkscape (http://www.inkscape.org/) -->

<svg
   version="1.1"
   id="svg1"
   width="801.53491"
   height="801.35443"
   viewBox="0 0 801.5349 801.35442"
   sodipodi:docname="serializd.svg"
   xml:space="preserve"
   inkscape:version="1.3.2 (091e20ef0f, 2023-11-25, custom)"
   xmlns:inkscape="http://www.inkscape.org/namespaces/inkscape"
   xmlns:sodipodi="http://sodipodi.sourceforge.net/DTD/sodipodi-0.dtd"
   xmlns="http://www.w3.org/2000/svg"
   xmlns:svg="http://www.w3.org/2000/svg"><defs
     id="defs1" /><sodipodi:namedview
     id="namedview1"
     pagecolor="#ffffff"
     bordercolor="#666666"
     borderopacity="1.0"
     inkscape:showpageshadow="2"
     inkscape:pageopacity="0.0"
     inkscape:pagecheckerboard="0"
     inkscape:deskcolor="#d1d1d1"
     inkscape:zoom="0.30879897"
     inkscape:cx="-730.24854"
     inkscape:cy="875.97442"
     inkscape:window-width="1920"
     inkscape:window-height="1043"
     inkscape:window-x="0"
     inkscape:window-y="0"
     inkscape:window-maximized="1"
     inkscape:current-layer="g1" /><g
     inkscape:groupmode="layer"
     inkscape:label="Image"
     id="g1"
     transform="translate(236.54534,240.8171)"><path
       style="display:inline;fill:#4abea8;fill-opacity:1"
       d="m 134.37516,559.71806 c 0.57265,-0.35392 -1.98688,-0.5105 -5.68785,-0.34796 -5.02755,0.22081 -6.22331,0.0408 -4.72903,-0.71188 1.49215,-0.75161 0.76675,-0.85882 -2.85678,-0.42219 -3.55221,0.42803 -4.66391,0.27316 -4.13876,-0.57656 0.50803,-0.822 -0.4194,-1.07966 -3.17108,-0.88098 -2.13902,0.15444 -4.45005,-0.0659 -5.13564,-0.4896 -0.6856,-0.42372 -2.69806,-0.48475 -4.47214,-0.13562 -2.48284,0.4886 -2.88019,0.38198 -1.7256,-0.46301 1.14144,-0.83536 0.60359,-0.94278 -2.25,-0.44938 -4.117632,0.71195 -11.074664,-0.23985 -10.347933,-1.41573 0.251704,-0.40727 -1.147207,-0.55313 -3.108691,-0.32413 -2.287728,0.26708 -3.337649,0.0463 -2.928475,-0.61573 0.390745,-0.63224 -0.137501,-0.82932 -1.363519,-0.50871 -1.100759,0.28785 -2.00138,0.035 -2.00138,-0.56188 0,-0.59688 -0.678388,-0.82492 -1.507529,-0.50675 -1.957944,0.75133 -8.692266,-0.50897 -8.073073,-1.51085 0.261237,-0.42269 -0.915179,-0.56449 -2.614259,-0.31512 -1.699079,0.24937 -2.845011,0.0554 -2.546515,-0.43095 0.298496,-0.48639 -0.875082,-0.91367 -2.607951,-0.94952 -3.673052,-0.076 -12.679551,-2.57762 -12.183909,-3.38418 0.186106,-0.30286 -0.963742,-0.64471 -2.555219,-0.75968 -1.591476,-0.11497 -4.774942,-0.71564 -7.074369,-1.33481 -3.231005,-0.87002 -3.857777,-1.3551 -2.758975,-2.13529 1.154251,-0.81956 1.106529,-0.90898 -0.253604,-0.47521 -1.869703,0.59629 -7.279903,-0.62511 -13.324597,-3.00814 -6.63902,-2.61734 -7.855622,-3.08332 -11.5,-4.40475 -5.8952732,-2.13759 -45.7198,-21.61774 -52.025556,-25.44829 -3.263866,-1.98269 -5.830834,-4.1403 -5.704373,-4.79468 0.134125,-0.69405 -0.677292,-1.06456 -1.947399,-0.88925 -2.468137,0.34069 -12.64289,-6.4734 -11.771455,-7.88341 0.303962,-0.49182 -0.06508,-0.65718 -0.820083,-0.36745 -2.078212,0.79748 -28.231134,-18.23744 -28.231134,-20.54752 0,-0.45952 -0.409646,-1.2105 -0.910325,-1.66883 -0.528895,-0.48416 -0.608918,-0.30958 -0.190983,0.41667 0.395638,0.6875 0.312529,1.25 -0.184687,1.25 -1.213578,0 -4.352307,-3.52837 -3.710056,-4.17062 0.279572,-0.27957 -0.506946,-1.36805 -1.747818,-2.41885 l -2.256131,-1.91053 1.904988,2.25 c 1.047743,1.2375 1.473518,2.25 0.946167,2.25 -1.080355,0 -7.851157,-6.73147 -7.851157,-7.80554 0,-0.38196 -0.3616,-0.57393 -0.80357,-0.42661 -1.06328,0.35443 -3.69643,-2.32075 -3.69643,-3.75544 0,-0.62175 -0.39901,-0.88384 -0.88669,-0.58244 -0.48768,0.3014 -1.44278,-0.12204 -2.12245,-0.94098 -0.67966,-0.81895 -0.8859,-1.48899 -0.45831,-1.48899 0.42758,0 -0.0275,-0.88939 -1.01121,-1.97642 -0.98375,-1.08703 -2.24802,-1.6925 -2.80949,-1.34549 -0.56148,0.34701 -0.74935,0.1916 -0.4175,-0.34534 0.80336,-1.29987 -16.65408,-18.61785 -17.7563,-17.61445 -0.47229,0.42993 -0.53499,0.2192 -0.13936,-0.4683 0.44965,-0.78136 0.11272,-1.25 -0.89869,-1.25 -0.88992,0 -1.38036,-0.38456 -1.08987,-0.85459 0.77517,-1.25425 -12.46602,-16.2289 -13.68441,-15.47589 -0.58739,0.36302 -0.73514,0.15475 -0.34176,-0.48176 0.38415,-0.62158 -2.05066,-4.58976 -5.46367,-8.90451 -6.52434,-8.2481 -7.74086,-9.64496 -6.4261,-7.37874 0.56162,0.96806 0.43966,1.17264 -0.39247,0.65835 -0.66401,-0.41038 -1.02953,-1.26741 -0.81227,-1.9045 0.21726,-0.6371 -0.99648,-3.02267 -2.69721,-5.30126 -1.70073,-2.27859 -3.67151,-4.97859 -4.37951,-6 -0.708,-1.02141 -0.97597,-1.22507 -0.59549,-0.45259 0.46652,0.94716 0.29418,1.15877 -0.52926,0.64986 -0.67157,-0.41505 -0.98193,-0.99375 -0.68969,-1.28599 0.95406,-0.95407 -1.46824,-4.34318 -2.60297,-3.64188 -0.64466,0.39842 -0.8228,0.22698 -0.42796,-0.41188 0.70943,-1.14788 -2.67684,-7.57181 -3.53761,-6.71103 -0.27303,0.27302 -0.49972,-0.0661 -0.50376,-0.75359 -0.008,-1.37417 -6.2362,-12.75 -6.98046,-12.75 -0.25496,0 -0.14248,0.51953 0.24996,1.15451 0.43207,0.6991 0.27535,0.88369 -0.39731,0.46797 -0.61095,-0.37759 -0.86389,-1.33006 -0.56207,-2.11659 0.30759,-0.80156 -0.65947,-2.54981 -2.20041,-3.9779 -1.51204,-1.40132 -2.45364,-2.84338 -2.09243,-3.20459 0.3612,-0.3612 0.65673,-0.0567 0.65673,0.6766 0,0.73333 0.23553,1.0978 0.5234,0.80993 0.28787,-0.28787 -0.53618,-2.38882 -1.83122,-4.66878 -1.29504,-2.27996 -2.65557,-3.84443 -3.0234,-3.4766 -0.36783,0.36783 -0.66878,-0.28505 -0.66878,-1.45083 0,-3.06399 -2.12034,-7.25738 -3.30073,-6.52786 -0.55456,0.34274 -0.7063,0.13453 -0.3372,-0.46268 0.91359,-1.47822 -2.43861,-8.29391 -3.6968,-7.51631 -0.59999,0.37082 -0.74776,-0.0495 -0.36659,-1.04283 0.3512,-0.91522 0.2991,-1.66404 -0.11578,-1.66404 -0.41488,0 -0.81016,-0.7875 -0.8784,-1.75 -0.0682,-0.9625 -2.44935,-7.375 -5.29134,-14.25 -12.53624,-30.32612 -23.53569,-71.9038 -26.45517,-100 -0.31433,-3.025 -1.22824,-11.575 -2.03092,-19 -1.78756,-16.53554 -2.05997,-46.01782 -0.54975,-59.5 0.61608,-5.5 1.29807,-12.475 1.51552,-15.5 0.21745,-3.025 1.10254,-9.69412 1.96685,-14.82027 0.86432,-5.126148 1.33667,-9.700214 1.04967,-10.164591 -0.287,-0.464377 -0.18151,-0.995256 0.23441,-1.179732 0.41593,-0.184475 1.82979,-5.73541 3.14191,-12.33541 6.50223,-32.706287 20.15,-72.119736 34.6272,-100 7.48536,-14.415332 10.63975,-19.881642 22.98712,-39.834879 12.70301,-20.527948 43.9209,-56.242848 67.94936,-77.737638 5.818592,-5.20505 24.94794,-20.48081 28.550642,-22.79913 5.981413,-3.84902 10.824412,-7.97652 10.188639,-8.68337 -0.378751,-0.4211 -0.142552,-0.45207 0.524887,-0.0688 0.667439,0.38324 2.129939,-0.21962 3.25,-1.33968 1.120061,-1.12006 2.148974,-1.94954 2.286474,-1.84329 0.60319,0.46609 14.75,-8.51705 14.75,-9.36617 0,-0.51977 0.433587,-0.67708 0.963526,-0.34956 0.529939,0.32752 1.879939,-0.32092 3,-1.44098 1.120061,-1.12006 2.626622,-2.03647 3.347913,-2.03647 0.721291,0 2.248389,-0.87291 3.393551,-1.93979 1.145161,-1.06688 2.355014,-1.66688 2.688561,-1.33333 0.333547,0.33355 0.606449,0.0549 0.606449,-0.61923 0,-0.67413 0.43801,-0.95498 0.973356,-0.62412 0.535345,0.33086 1.760354,-0.31758 2.722241,-1.44098 0.961887,-1.12341 2.516734,-2.04255 3.455216,-2.04255 0.938482,0 2.359902,-0.65357 3.158711,-1.45238 0.79881,-0.79881 1.730953,-1.17381 2.071429,-0.83334 0.340476,0.34048 0.619047,0.0941 0.619047,-0.54762 0,-0.64166 0.3375,-1.07532 0.75,-0.96368 1.445598,0.39123 8.1383523,-2.57462 7.637743,-3.38462 -0.2781771,-0.4501 0.6501855,-0.81836 2.063028,-0.81836 1.4128424,0 3.3394084,-0.9 4.28125781,-2 0.94184936,-1.1 2.73744499,-2 3.99021249,-2 1.2527676,0 3.1777592,-0.9 4.2777592,-2 1.1,-1.1 2.8999995,-2.05625 3.9999995,-2.125 1.1,-0.0687 2.3375,-0.21794 2.75,-0.33154 5.123577,-1.41091 6.25,-1.89949 6.25,-2.71089 0,-0.52283 0.369766,-0.72208 0.821701,-0.44277 0.451935,0.27931 1.995125,-0.10094 3.42931,-0.845 1.434186,-0.74407 2.864421,-1.09604 3.1783,-0.78216 0.313879,0.31388 0.570689,0.0191 0.570689,-0.65499 0,-0.67413 0.346014,-1.01184 0.76892,-0.75047 0.422906,0.26137 6.096167,-1.28707 12.607248,-3.44098 6.511081,-2.15391 12.690067,-3.9162 13.731081,-3.9162 1.041013,0 1.892751,-0.375 1.892751,-0.83334 0,-0.45833 0.5625,-0.83763 1.25,-0.84289 0.6875,-0.005 6.2,-1.19381 12.25,-2.64123 18.67494,-4.46786 44.051458,-8.73615 61.999998,-10.42831 12.78283,-1.20515 53.86617,-0.87226 67.5,0.54694 19.2113,1.99978 20.0282,2.10934 27.5,3.68822 3.85,0.81355 8.8,1.71087 11,1.99404 2.2,0.28317 8.5,1.6262 14,2.98452 5.5,1.35831 12.7,3.13571 16,3.94978 8.47811,2.09143 18.12334,5.23662 32,10.43481 6.6,2.47236 14.025,5.25022 16.5,6.17304 6.65821,2.48254 11.29039,4.5583 23.56989,10.56206 6.08844,2.9768 11.45301,5.41236 11.92126,5.41236 0.46826,0 1.5618,0.63025 2.43011,1.40056 0.86831,0.7703 3.82874,2.62664 6.57874,4.12518 2.75,1.49855 8.02299,4.6933 11.71774,7.09945 3.69476,2.40614 6.97625,4.37481 7.29221,4.37481 0.31596,0 1.11797,0.46466 1.78226,1.03258 0.66429,0.56792 8.18279,6.05698 16.70779,12.19791 8.525,6.14093 15.725,11.4146 16,11.71925 0.275,0.30466 5.675,5.12399 12,10.70963 11.97331,10.5737 27.27039,25.9411 37.52194,37.69444 3.28793,3.7696 6.45122,7.3696 7.02953,8 1.82886,1.99361 9.86616,12.10979 11.94853,15.03907 1.1,1.54738 3.6875,4.96892 5.75,7.603426 2.0625,2.634507 3.75,5.203237 3.75,5.70829 0,0.505053 0.8009,1.790631 1.77978,2.85684 0.97888,1.066208 3.28785,4.413561 5.13104,7.438561 1.84319,3.025 3.66823,5.725 4.05563,6 0.3874,0.275 2.06215,2.975 3.72166,6 1.65951,3.025 4.0232,7.271725 5.25264,9.437167 3.20495,5.644974 12.46185,24.182542 15.01213,30.062833 1.19268,2.75 2.78285,6.35 3.53372,8 7.99147,17.560946 17.97907,48.428377 22.56607,69.742114 5.47487,25.439301 7.71434,41.923109 9.96232,73.328499 1.51032,21.09989 -0.32672,49.16162 -5.06887,77.42939 -1.06106,6.325 -2.12216,12.85 -2.35799,14.5 -0.39269,2.74743 -1.86978,8.60054 -7.44463,29.5 -3.41642,12.80776 -11.32943,35.86048 -15.61821,45.5 -0.73411,1.65 -2.55399,5.925 -4.04419,9.5 -6.09257,14.61614 -14.4953,30.64516 -25.07876,47.84013 -2.14629,3.48707 -4.57734,7.53707 -5.40234,9 -0.825,1.46293 -1.88842,2.94289 -2.36315,3.28882 -0.47473,0.34592 -0.24973,0.87289 0.5,1.17105 1.00117,0.39815 0.92898,0.56307 -0.27184,0.62105 -0.89924,0.0434 -2.43729,1.31645 -3.41788,2.82895 -0.98059,1.5125 -4.96521,7.025 -8.85471,12.25 -3.88951,5.225 -6.96396,9.8375 -6.83212,10.25 0.13184,0.4125 -0.23686,0.75 -0.81931,0.75 -0.58246,0 -0.77402,0.46115 -0.42567,1.02477 0.34834,0.56363 0.22962,0.90113 -0.26381,0.75 -1.02274,-0.31324 -11.25151,11.61847 -11.25151,13.12472 0,0.5429 -1.0125,1.69628 -2.25,2.56306 -1.2375,0.86678 -2.25,1.94749 -2.25,2.40157 0,1.36609 -12.75255,14.13588 -14.11679,14.13588 -0.69585,0 -1.58626,0.51953 -1.9787,1.15451 -0.47866,0.77448 -0.25121,0.88963 0.69098,0.34982 0.77248,-0.44258 -0.12929,0.82038 -2.00394,2.80658 -1.87465,1.98619 -3.73616,3.40873 -4.13669,3.16119 -0.40054,-0.24755 -1.34173,0.30634 -2.09155,1.23087 -1.17136,1.44428 -1.15212,1.56791 0.13669,0.87809 0.825,-0.44157 -0.72815,1.15955 -3.45145,3.55804 -2.72329,2.39849 -5.27294,4.3609 -5.66588,4.3609 -0.39294,0 -1.6182,1.04206 -2.72281,2.31568 -1.10461,1.27363 -2.37997,2.28613 -2.83412,2.25 -0.45416,-0.0361 -0.84619,0.49682 -0.87119,1.18432 -0.025,0.6875 -0.51389,1.16203 -1.08642,1.05452 -0.57253,-0.10751 -4.0927,2.70975 -7.8226,6.26058 -3.7299,3.55083 -7.85352,6.72508 -9.16358,7.05388 -1.31007,0.32881 -2.38195,1.02561 -2.38195,1.54844 0,0.52284 -0.45318,0.67053 -1.00706,0.32821 -0.55388,-0.34232 -1.28559,0.10343 -1.62601,0.99056 -0.82769,2.15693 -7.44329,6.58465 -8.68849,5.81507 -0.5431,-0.33565 -0.69788,-0.14174 -0.34396,0.43092 0.82242,1.3307 -1.90779,3.64956 -3.29067,2.79489 -0.5741,-0.35481 -1.04381,-0.22835 -1.04381,0.28102 0,1.33662 -7.90108,6.37107 -8.96593,5.71296 -0.49273,-0.30452 -1.22149,-0.0268 -1.61948,0.61714 -0.48135,0.77885 -0.2534,0.92265 0.6809,0.42954 0.77248,-0.40771 0.27951,0.18776 -1.09549,1.32325 -2.30104,1.90024 -4.21929,2.56834 -6.32433,2.20266 -0.45338,-0.0788 -0.53932,0.31795 -0.19098,0.88158 0.5687,0.92017 -0.72419,1.46065 -2.73469,1.1432 -0.4125,-0.0651 -0.75,0.33158 -0.75,0.88158 0,0.55 -0.675,1 -1.5,1 -0.825,0 -1.5,0.45 -1.5,1 0,0.55 -0.9,1 -2,1 -1.1,0 -2,0.47655 -2,1.05901 0,0.58246 -0.36973,0.83052 -0.82162,0.55123 -0.45189,-0.27928 -1.58888,0.38831 -2.52664,1.48353 -0.93777,1.09523 -2.14304,1.72062 -2.67838,1.38976 -0.53535,-0.33086 -0.97336,-0.0769 -0.97336,0.56444 0,0.65572 -0.69695,0.89856 -1.59254,0.55489 -1.06547,-0.40886 -1.76782,0.0591 -2.12214,1.41409 -0.41386,1.58261 -0.82813,1.77744 -1.89563,0.8915 -1.04518,-0.86743 -1.5044,-0.7731 -1.95517,0.4016 -0.32404,0.84442 -1.25273,1.78995 -2.06377,2.10117 -0.97109,0.37264 -1.23594,0.14295 -0.77562,-0.67268 0.38446,-0.6812 -0.31313,-0.19553 -1.55018,1.07926 -1.23706,1.27479 -2.90161,2.06744 -3.69901,1.76145 -0.8094,-0.31059 -1.17994,-0.11968 -0.83886,0.4322 0.33603,0.5437 -0.34774,0.98855 -1.51949,0.98855 -1.17174,0 -2.83132,0.70088 -3.68795,1.55751 -0.85664,0.85663 -2.19786,1.31178 -2.98051,1.01145 -0.78826,-0.30248 -1.15048,-0.1051 -0.81205,0.44249 0.33603,0.5437 -0.34774,0.98855 -1.51949,0.98855 -1.17174,0 -2.83132,0.70088 -3.68795,1.55751 -0.85664,0.85663 -2.19786,1.31178 -2.98051,1.01145 -0.78265,-0.30033 -1.17969,-0.15237 -0.88231,0.3288 0.29738,0.48117 -0.35487,1.10905 -1.44944,1.39529 -1.29535,0.33874 -1.7885,0.11659 -1.41257,-0.63631 0.31766,-0.63621 -0.29414,-0.17167 -1.35956,1.03231 -1.51728,1.7146 -2.21581,1.93134 -3.2229,1 -0.88335,-0.81691 -1.08515,-0.83063 -0.6448,-0.0438 0.73839,1.31929 -1.42925,2.35479 -4.92933,2.35479 -1.33002,0 -2.41822,0.50248 -2.41822,1.11663 0,0.62456 -0.88196,0.88599 -2.00138,0.59326 -1.10076,-0.28786 -1.77834,-0.1625 -1.50574,0.27858 0.65303,1.05663 -1.95377,2.01153 -5.49133,2.01153 -1.55919,0 -2.9987,0.49146 -3.19893,1.09213 -0.20022,0.60068 -1.54454,1.16318 -2.98737,1.25 -1.44283,0.0868 -2.41495,0.49537 -2.16027,0.90787 0.25468,0.4125 -1.1385,0.75 -3.09596,0.75 -1.95746,0 -3.55902,0.37797 -3.55902,0.83994 0,1.14587 -6.71401,3.27389 -11,3.48646 -1.925,0.0955 -3.80151,0.59193 -4.17003,1.10322 -0.36852,0.5113 -1.26852,1.018 -2,1.126 -0.73148,0.10801 -3.94493,0.73978 -7.141,1.40395 -3.19607,0.66416 -6.48215,0.95003 -7.3024,0.63527 -0.82025,-0.31476 -2.59362,0.14994 -3.94082,1.03266 -1.3472,0.88272 -3.55792,1.39305 -4.91271,1.13406 -1.3548,-0.25898 -2.62027,1.4e-4 -2.81217,0.57583 -0.2956,0.8868 -7.45891,1.58073 -18.95736,1.83646 -1.50506,0.0335 -2.53092,0.39346 -2.27969,0.79997 0.25124,0.40651 -1.31919,0.63891 -3.48984,0.51643 -2.17065,-0.12247 -3.70574,0.16712 -3.41129,0.64353 0.29444,0.47642 -1.40371,0.87236 -3.77367,0.87987 -2.36996,0.008 -5.43402,0.27155 -6.80902,0.58675 -2.05292,0.4706 -2.23175,0.36188 -1,-0.60799 1.24178,-0.97776 1.1557,-1.04324 -0.5,-0.38037 -2.36489,0.94678 -60.10483,1.3798 -58.58312,0.43933 z"
       id="path1" /><path
       id="path12"
       style="display:inline;fill:#9effff;fill-opacity:1"
       d="m 15.532109,410.96438 c -4.064447,-6.13619 -8.8823585,-21.56333 -9.6649796,-30.94763 -1.399151,-16.77703 1.8799704,-26.97326 24.8758956,-77.35006 7.238972,-15.8583 18.423371,-40.78064 30.740752,-68.5 7.57634,-17.05 18.372526,-41.125 23.991523,-53.5 5.618998,-12.375 14.82828,-33.075 20.46507,-46 5.63678,-12.925 19.25645,-43.525003 30.26592,-68.000003 23.25286,-51.693126 47.71316,-106.564375 63.96889,-143.5 6.29357,-14.3 13.26164,-29.304537 15.48461,-33.343417 8.95568,-16.27149 27.65331,-31.16283 44.23373,-35.5969 l 9.06479,-2.87716 4,-0.78363 c 15.29196,-2.99581 37.49287,2.25593 52.94392,12.52416 9.5547,6.34972 21.37157,20.79839 27.05205,33.07695 5.15453,11.14171 7.30506,25.89181 5.62054,38.550224 -1.51698,11.399449 -4.54818,19.620592 -18.6012,50.449773 -4.01135,8.8 -10.09749,22.3 -13.52475,30 -15.72845,35.336954 -27.96907,62.699746 -55.0235,123.000003 -6.1691,13.75 -16.93432,37.6 -23.80083,53 -23.94181,53.69599 -44.39641,99.65398 -57.14717,128 -7.70619,17.1315 -9.16389,20.41717 -23.73555,53.5 -17.24441,39.15092 -21.20122,46.10184 -32.79294,57.60732 -8.47381,8.41078 -17.98481,14.29088 -28.99057,17.9232 -10.142775,3.34751 -29.205525,4.27344 -39.49165,1.91822 -12.88917,-2.95124 -29.266629,-12.45083 -39.222921,-22.75088 -3.295054,-3.40883 -6.65692,-7.48489 -7.470813,-9.05793"
       sodipodi:nodetypes="cssssssssccssssssssssssssc" /><path
       style="display:inline;fill:#ffffff"
       d="m 55.717078,339.96211 c -5.361343,-1.03394 -6.637708,-7.97444 -3.267787,-17.76929 3.220721,-9.36119 11.550879,-29.42425 19.654384,-47.33728 4.152339,-9.17887 10.488837,-23.21385 14.081107,-31.18885 3.59227,-7.975 8.785729,-19.45 11.541019,-25.5 2.755289,-6.05 8.272119,-18.65 12.259619,-28 3.9875,-9.35 11.39022,-26.225 16.45049,-37.5 5.06027,-11.275 13.49044,-30.175 18.73371,-42 5.24327,-11.825003 14.67702,-32.914486 20.96388,-46.865522 6.28686,-13.951035 15.40389,-34.651035 20.26007,-46 17.25321,-40.321051 27.48123,-61.936127 33.30517,-70.384481 2.2334,-3.239828 6.11228,-3.625512 11.37004,-1.130543 7.41684,3.519523 11.0334,12.617868 8.38546,21.095712 -3.56109,11.401438 -13.22992,34.3429848 -28.98971,68.784831 -5.03335,11 -11.86061,26.3 -15.17169,34 -3.31108,7.7 -6.83343,15.8 -7.82744,18 -0.99401,2.2 -3.82477,8.725 -6.29058,14.500003 -2.46581,5.775 -6.38124,14.55 -8.70095,19.5 -7.63031,16.28223 -18.10177,39.65757 -27.55017,61.5 -5.11515,11.825 -13.43852,30.725 -18.49638,42 -5.05785,11.275 -15.84515,35.35 -23.97177,53.5 -20.480265,45.74061 -26.055772,57.72375 -27.800435,59.75 -1.211515,1.40705 -2.99522,1.72331 -9.10182,1.61381 -4.177257,-0.0749 -8.603554,-0.33067 -9.836217,-0.56839 z"
       id="path2" /><path
       style="display:inline;fill:#1a7767;fill-opacity:1"
       d="M 65.46666,450.11543 C 52.57749,447.16419 36.200031,437.6646 26.243739,427.36455 c -3.295054,-3.40883 -6.65692,-7.48489 -7.470813,-9.05793 -1.714312,-3.3133 -1.424015,-3.19894 6.185387,2.43661 11.43826,8.47122 22.353208,11.88682 38,11.89131 4.95,10e-4 11.88531,-0.67753 15.4118,-1.50877 13.698984,-3.22906 28.272187,-12.64174 36.597527,-23.63797 6.14511,-8.11655 6.84838,-9.61839 50.4896,-107.82111 10.87667,-24.475 25.05799,-56.2 31.51405,-70.5 6.45605,-14.3 17.12641,-38.15 23.7119,-53 6.58549,-14.85 12.78583,-28.8 13.77853,-31 5.30727,-11.76192 42.68988,-95.226322 51.50698,-115.000003 5.64064,-12.65 15.52539,-34.7 21.9661,-49 19.73648,-43.819949 21.55127,-49.208198 21.48789,-63.799221 -0.13073,-30.097586 -21.40177,-57.113696 -50.06896,-63.592046 -2.41748,-0.54632 -5.74542,-1.31571 -7.39542,-1.70976 l -3,-0.71645 4,-0.78363 c 15.29196,-2.99581 37.49287,2.25593 52.94392,12.52416 9.5547,6.34972 21.37157,20.79839 27.05205,33.07695 5.15453,11.14171 7.30506,25.89181 5.62054,38.550224 -1.51698,11.399449 -4.54818,19.620592 -18.6012,50.449773 -4.01135,8.8 -10.09749,22.3 -13.52475,30 -15.72845,35.336954 -27.96907,62.699746 -55.0235,123.000003 -6.1691,13.75 -16.8346,37.6 -23.70111,53 -23.94181,53.69599 -44.49613,99.65398 -57.24689,128 -7.70619,17.1315 -9.16389,20.41717 -23.73555,53.5 -17.24441,39.15092 -21.20122,46.10184 -32.79294,57.60732 -8.47381,8.41078 -17.98481,14.29088 -28.99057,17.9232 -10.142775,3.34751 -29.205525,4.27344 -39.49165,1.91822 z"
       id="path17" /></g></svg>
