<?xml version="1.0" encoding="UTF-8" standalone="no"?>
<!-- Created with Inkscape (http://www.inkscape.org/) -->

<svg
   xmlns:dc="http://purl.org/dc/elements/1.1/"
   xmlns:cc="http://creativecommons.org/ns#"
   xmlns:rdf="http://www.w3.org/1999/02/22-rdf-syntax-ns#"
   xmlns:svg="http://www.w3.org/2000/svg"
   xmlns="http://www.w3.org/2000/svg"
   xmlns:sodipodi="http://sodipodi.sourceforge.net/DTD/sodipodi-0.dtd"
   xmlns:inkscape="http://www.inkscape.org/namespaces/inkscape"
   id="svg2"
   version="1.1"
   inkscape:version="0.91 r13725"
   width="512"
   height="512"
   viewBox="0 0 512 512"
   sodipodi:docname="euqitircsnes.svg">
  <metadata
     id="metadata8">
    <rdf:RDF>
      <cc:Work
         rdf:about="">
        <dc:format>image/svg+xml</dc:format>
        <dc:type
           rdf:resource="http://purl.org/dc/dcmitype/StillImage" />
        <dc:title></dc:title>
      </cc:Work>
    </rdf:RDF>
  </metadata>
  <defs
     id="defs6" />
  <sodipodi:namedview
     pagecolor="#ffffff"
     bordercolor="#666666"
     borderopacity="1"
     objecttolerance="10"
     gridtolerance="10"
     guidetolerance="10"
     inkscape:pageopacity="0"
     inkscape:pageshadow="2"
     inkscape:window-width="2560"
     inkscape:window-height="1406"
     id="namedview4"
     showgrid="false"
     inkscape:zoom="0.921875"
     inkscape:cx="234.53033"
     inkscape:cy="-15.668012"
     inkscape:window-x="0"
     inkscape:window-y="1512"
     inkscape:window-maximized="1"
     inkscape:current-layer="svg2" />
  <path
     id="path4138"
     style="fill:#000000"
     d="m 156.26131,316.57515 c 36.7731,-5.29076 61.47377,-17.22734 78.40426,-37.88878 9.67311,-11.80477 14.48349,-28.85741 12.79352,-45.35262 l -0.8777,-8.56674 6.37252,7.65212 c 29.24388,35.11606 70.8521,49.06649 117.56578,39.41752 25.46456,-5.25986 44.9719,-16.4257 60.49065,-34.62435 5.76711,-6.76302 21.22012,-35.35248 19.84941,-36.7232 -0.32736,-0.32735 -8.72259,-2.62139 -18.6561,-5.09787 -9.93349,-2.47647 -18.9,-4.82466 -19.92556,-5.21821 -1.33178,-0.51104 -2.92658,1.62642 -5.58035,7.47917 -2.37166,5.23062 -6.75352,11.41502 -12.11431,17.09774 -13.97264,14.81174 -29.48158,20.53229 -52.25882,19.27596 -14.41347,-0.79502 -24.05817,-4.02693 -35.69706,-11.962 -25.15541,-17.15024 -38.39354,-53.9471 -30.87821,-85.82944 4.37218,-18.54815 18.51256,-37.234973 34.63327,-45.768605 9.17254,-4.855563 25.02728,-9.217385 33.50415,-9.217385 13.47996,0 31.22053,7.032966 41.1409,16.309646 3.92866,3.673754 6.56735,5.257864 7.65411,4.595054 4.4949,-2.741382 31.63711,-24.999713 31.63711,-25.944422 0,-1.122143 -11.27301,-11.035364 -19.14179,-16.832842 -7.58362,-5.587392 -22.19799,-12.337313 -32.62468,-15.068322 -29.61345,-7.756497 -69.98794,0.868031 -98.15417,20.967038 -4.36415,3.11419 -12.58599,10.633447 -18.27075,16.709446 -12.44118,13.297435 -21.54535,30.330092 -25.85878,48.378272 -3.43368,14.36706 -3.69284,36.33862 -0.59438,50.38956 1.1604,5.2622 2.47078,11.26259 2.91195,13.3342 l 0.80214,3.76655 -5.7052,-4.67498 c -15.71362,-12.87612 -33.26023,-17.00865 -79.72203,-18.77587 -40.5464,-1.54223 -48.199961,-3.10391 -53.291016,-10.87384 -3.441135,-5.25184 -2.953402,-15.05993 1.04971,-21.10905 7.594876,-11.47663 24.172986,-17.08547 50.499666,-17.08547 18.18757,0 30.83702,2.4734 42.14017,8.23983 2.72719,1.39131 5.29444,2.52966 5.70501,2.52966 0.89859,0 18.73198,-37.178568 18.12467,-37.785858 -1.75839,-1.758392 -19.70189,-8.811233 -27.58017,-10.840606 -12.66854,-3.263317 -34.60485,-4.370101 -49.87085,-2.516212 -40.427311,4.909435 -70.324763,22.239996 -83.203454,48.230306 -4.797316,9.68137 -5.370545,11.85932 -5.86981,22.30187 -1.294259,27.07065 9.328013,45.83771 32.0119,56.55749 14.357988,6.7852 24.330334,8.34026 61.526264,9.59427 48.97288,1.65104 58.01412,4.40998 61.14349,18.65795 2.39844,10.92002 -8.35502,25.45142 -22.91247,30.96215 -12.2868,4.65118 -27.53866,6.8165 -42.69592,6.06157 -14.93368,-0.74378 -25.49183,-3.51618 -41.358638,-10.86008 -5.557394,-2.57223 -10.295594,-4.10972 -10.529325,-3.41664 -0.233744,0.69306 -4.118384,9.47064 -8.632548,19.50572 l -8.207566,18.24557 4.066526,2.49561 c 9.542584,5.85625 30.328751,12.32011 46.164121,14.35563 9.37432,1.205 27.56352,0.71572 40.02036,-1.07651 z m 55.3367,159.17891 c -0.76744,-3.33273 -4.67134,-21.55908 -8.67532,-40.503 -15.42257,-72.96846 -13.70197,-66.35877 -17.22017,-66.15117 -1.71928,0.10141 -10.01465,1.17056 -18.43417,2.37581 -30.13035,4.3131 -63.31474,-0.27618 -88.546765,-12.2457 -11.867481,-5.62967 -35.251463,-18.88096 -41.305864,-23.40728 -2.186218,-1.63444 -2.173015,-1.94603 0.308218,-7.26978 1.425795,-3.0592 8.581852,-19.62659 15.902345,-36.81645 l 13.309975,-31.25428 -2.774883,-2.23592 C 40.961411,239.55241 32.766104,227.89303 26.089806,204.08226 22.399402,190.92056 22.133269,168.8099 25.509574,155.87603 32.16435,130.38311 48.756624,108.72429 74.143343,92.391671 92.427928,80.628234 112.70072,74.291103 138.8623,72.16099 c 30.20081,-2.458998 59.19077,1.581071 82.4904,11.495963 l 8.7327,3.716096 11.96477,-11.768679 c 17.52079,-17.233663 35.8744,-28.84957 58.52727,-37.041593 24.856,-8.988756 58.6859,-11.066685 84.57206,-5.19466 15.12116,3.430088 32.62119,11.036976 45.4798,19.769097 14.39192,9.773363 32.28307,28.389638 40.68585,42.334815 l 2.80547,4.655941 -26.44712,20.85776 c -14.54591,11.47178 -32.78351,25.87372 -40.528,32.00432 -7.7445,6.13061 -14.51144,11.15362 -15.03766,11.16225 -0.52622,0.009 -0.96238,-1.27594 -0.96923,-2.8546 -0.0217,-4.992 -5.99419,-15.96037 -11.91455,-21.88072 -14.62951,-14.6295 -35.4789,-18.17706 -54.81156,-9.32628 -32.8804,15.05315 -28.01022,68.17901 7.77887,84.85493 6.20078,2.88924 9.01588,3.39885 18.77562,3.39885 9.67301,0 12.59532,-0.51942 18.55565,-3.29814 14.65181,-6.83071 22.61111,-18.05431 23.86296,-33.64975 0.36639,-4.56434 1.0181,-8.29358 1.44826,-8.28717 0.43016,0.006 6.23566,1.39544 12.90112,3.08677 6.66545,1.69132 21.59097,5.15808 33.16781,7.7039 11.57684,2.54582 25.99935,5.74925 32.05004,7.11871 6.05068,1.36947 12.2218,2.48994 13.71362,2.48994 2.51969,0 2.71237,0.66518 2.71237,9.36358 0,5.17511 -1.13662,13.80772 -2.541,19.29876 -9.89542,38.69077 -43.77713,72.36399 -95.68675,95.09799 -6.66545,2.91916 -12.23306,5.41912 -12.37247,5.55548 -0.13939,0.13636 0.88587,5.39606 2.27837,11.68824 2.37195,10.71787 9.20302,42.89757 17.86422,84.15436 2.06214,9.82278 4.094,18.95103 4.51525,20.28501 0.61939,1.96143 0.31067,2.25183 -1.61375,1.51799 -2.50429,-0.95496 -62.09854,-35.65964 -93.59114,-54.50276 -10.17359,-6.08721 -18.90567,-10.81537 -19.40463,-10.50703 -0.49894,0.30835 -9.64407,13.02631 -20.32249,28.26214 -10.67843,15.23583 -21.43299,30.57179 -23.89903,34.07993 -2.46604,3.50813 -10.43698,14.84578 -17.71319,25.19478 -7.27621,10.34899 -13.3801,18.81635 -13.56417,18.81635 -0.18407,0 -0.96259,-2.72678 -1.73003,-6.0595 z"
     inkscape:connector-curvature="0" />
</svg>
